<svg width="89" height="37" viewBox="0 0 89 37" fill="none" xmlns="http://www.w3.org/2000/svg">
<path d="M0.32875 3.96V3.4H5.84875C6.91542 3.4 7.76208 3.54667 8.38875 3.84C9.01542 4.13333 9.46208 4.52 9.72875 5C10.0088 5.48 10.1488 6.01333 10.1488 6.6V7.14C10.1488 7.83333 9.92875 8.43333 9.48875 8.94C9.06208 9.43333 8.43542 9.78667 7.60875 10C8.62208 10.1733 9.39542 10.5333 9.92875 11.08C10.4754 11.6267 10.7488 12.3133 10.7488 13.14V13.7C10.7488 14.3 10.6088 14.8533 10.3288 15.36C10.0488 15.8533 9.58208 16.2533 8.92875 16.56C8.28875 16.8533 7.42875 17 6.34875 17H0.32875V16.44L1.42875 16.3C1.64208 16.2733 1.76875 16.22 1.80875 16.14C1.84875 16.0467 1.86875 15.7733 1.86875 15.32V5.08C1.86875 4.62667 1.84875 4.36 1.80875 4.28C1.76875 4.18667 1.64208 4.12667 1.42875 4.1L0.32875 3.96ZM5.84875 4.1H4.26875V9.7H5.84875C6.42208 9.7 6.85542 9.50667 7.14875 9.12C7.44208 8.72 7.58875 8.09333 7.58875 7.24V6.6C7.58875 5.73333 7.44208 5.1 7.14875 4.7C6.85542 4.3 6.42208 4.1 5.84875 4.1ZM6.34875 10.4H4.26875V16.3H6.34875C6.94875 16.3 7.40208 16.1 7.70875 15.7C8.02875 15.2867 8.18875 14.62 8.18875 13.7V13.04C8.18875 11.28 7.57542 10.4 6.34875 10.4ZM21.273 14.62C21.033 15.5533 20.5863 16.22 19.933 16.62C19.2796 17.0067 18.5196 17.2 17.653 17.2C16.053 17.2 14.853 16.74 14.053 15.82C13.253 14.8867 12.853 13.6533 12.853 12.12V11.72C12.853 10.1867 13.2263 8.96 13.973 8.04C14.733 7.12 15.8263 6.66 17.253 6.66C18.053 6.66 18.7596 6.82 19.373 7.14C19.9996 7.44667 20.4863 7.89333 20.833 8.48C21.193 9.06667 21.373 9.78 21.373 10.62C21.373 10.82 21.3596 11.0333 21.333 11.26C21.3196 11.4867 21.2863 11.7133 21.233 11.94H15.313V12.52C15.313 13.9333 15.513 14.9533 15.913 15.58C16.313 16.1933 16.9596 16.5 17.853 16.5C18.4263 16.5 18.913 16.3333 19.313 16C19.713 15.6533 19.9396 15.0733 19.993 14.26L21.273 14.62ZM17.253 7.36C16.5996 7.36 16.113 7.66 15.793 8.26C15.473 8.86 15.313 9.85333 15.313 11.24H18.933C18.9863 10.9733 19.0196 10.7267 19.033 10.5C19.0596 10.26 19.073 10.04 19.073 9.84C19.073 8.98667 18.9063 8.36 18.573 7.96C18.2396 7.56 17.7996 7.36 17.253 7.36ZM34.6189 16.44V17H29.2389V16.44L30.3389 16.3C30.5522 16.2733 30.6789 16.22 30.7189 16.14C30.7589 16.0467 30.7789 15.7733 30.7789 15.32V10.28C30.7789 9.36 30.6389 8.69333 30.3589 8.28C30.0922 7.85333 29.6922 7.64 29.1589 7.64C28.9322 7.64 28.6656 7.7 28.3589 7.82C28.0656 7.92667 27.7656 8.12667 27.4589 8.42C27.1656 8.71333 26.9056 9.14667 26.6789 9.72V15.32C26.6789 15.7733 26.6989 16.0467 26.7389 16.14C26.7789 16.22 26.9056 16.2733 27.1189 16.3L28.2189 16.44V17H22.8389V16.44L23.9389 16.3C24.1522 16.2733 24.2789 16.22 24.3189 16.14C24.3589 16.0467 24.3789 15.7733 24.3789 15.32V8.54C24.3789 8.08667 24.3589 7.82 24.3189 7.74C24.2789 7.64667 24.1522 7.58667 23.9389 7.56L22.8389 7.42V6.86H26.5589V8.62C26.9456 7.94 27.4389 7.44667 28.0389 7.14C28.6522 6.82 29.2656 6.66 29.8789 6.66C30.8656 6.66 31.6456 6.97333 32.2189 7.6C32.7922 8.22667 33.0789 9.11333 33.0789 10.26V15.32C33.0789 15.7733 33.0989 16.0467 33.1389 16.14C33.1789 16.22 33.3056 16.2733 33.5189 16.3L34.6189 16.44ZM37.8398 5.14C37.4265 5.14 37.0932 5.01333 36.8398 4.76C36.5865 4.49333 36.4598 4.15333 36.4598 3.74C36.4598 3.32667 36.5865 2.99333 36.8398 2.74C37.0932 2.48667 37.4265 2.36 37.8398 2.36C38.2398 2.36 38.5732 2.48667 38.8398 2.74C39.1065 2.99333 39.2398 3.32667 39.2398 3.74C39.2398 4.15333 39.1065 4.49333 38.8398 4.76C38.5732 5.01333 38.2398 5.14 37.8398 5.14ZM35.1598 7.42V6.86H38.9998V17.68C38.9998 18.3467 38.8865 18.9667 38.6598 19.54C38.4332 20.1133 38.0665 20.5733 37.5598 20.92C37.0532 21.28 36.3798 21.46 35.5398 21.46C34.8065 21.46 34.1798 21.2733 33.6598 20.9C33.1398 20.5267 32.8198 19.8933 32.6998 19L33.9398 18.62C34.0065 19.4733 34.1665 20.04 34.4198 20.32C34.6732 20.6133 34.9665 20.76 35.2998 20.76C35.7398 20.76 36.0798 20.5667 36.3198 20.18C36.5732 19.7933 36.6998 19.0933 36.6998 18.08V8.54C36.6998 8.08667 36.6798 7.82 36.6398 7.74C36.5998 7.64667 36.4732 7.58667 36.2598 7.56L35.1598 7.42ZM51.3592 16.5C51.1459 16.7 50.8859 16.8667 50.5792 17C50.2859 17.1333 49.9259 17.2 49.4992 17.2C48.9526 17.2 48.4926 17.08 48.1192 16.84C47.7592 16.6 47.5192 16.26 47.3992 15.82C46.9592 16.3 46.4726 16.6533 45.9392 16.88C45.4192 17.0933 44.8859 17.2 44.3392 17.2C43.4192 17.2 42.7326 16.9467 42.2792 16.44C41.8259 15.92 41.5992 15.2733 41.5992 14.5C41.5992 13.7133 41.8859 13.08 42.4592 12.6C43.0326 12.1067 44.0459 11.86 45.4992 11.86H47.3192V10.24C47.3192 9.13333 47.1726 8.38 46.8792 7.98C46.5992 7.56667 46.2059 7.36 45.6992 7.36C45.3659 7.36 45.0592 7.44667 44.7792 7.62C44.4992 7.78 44.2992 8.08667 44.1792 8.54C44.0726 8.98 44.0926 9.62 44.2392 10.46L42.0392 10.14C41.9326 9.52667 41.9992 8.96 42.2392 8.44C42.4926 7.90667 42.9126 7.48 43.4992 7.16C44.0859 6.82667 44.8326 6.66 45.7392 6.66C46.7659 6.66 47.5592 6.82667 48.1192 7.16C48.6792 7.49333 49.0659 7.93333 49.2792 8.48C49.5059 9.02667 49.6192 9.61333 49.6192 10.24V14.86C49.6192 15.54 49.6792 15.9667 49.7992 16.14C49.9192 16.3133 50.0526 16.4 50.1992 16.4C50.4392 16.4 50.7059 16.26 50.9992 15.98L51.3592 16.5ZM45.2192 16.14C45.5659 16.14 45.9059 16.0533 46.2392 15.88C46.5859 15.6933 46.9459 15.3533 47.3192 14.86V12.56H45.8192C45.1659 12.56 44.6926 12.7133 44.3992 13.02C44.1059 13.3267 43.9592 13.8067 43.9592 14.46C43.9592 14.9933 44.0659 15.4067 44.2792 15.7C44.4926 15.9933 44.8059 16.14 45.2192 16.14ZM63.5009 16.44V17H58.1209V16.44L59.2209 16.3C59.4343 16.2733 59.5609 16.22 59.6009 16.14C59.6409 16.0467 59.6609 15.7733 59.6609 15.32V10.28C59.6609 9.36 59.5343 8.69333 59.2809 8.28C59.0276 7.85333 58.6476 7.64 58.1409 7.64C57.9276 7.64 57.6743 7.7 57.3809 7.82C57.0876 7.92667 56.7943 8.12667 56.5009 8.42C56.2209 8.71333 55.9743 9.14667 55.7609 9.72V15.32C55.7609 15.7733 55.7809 16.0467 55.8209 16.14C55.8609 16.22 55.9876 16.2733 56.2009 16.3L57.3009 16.44V17H51.9209V16.44L53.0209 16.3C53.2343 16.2733 53.3609 16.22 53.4009 16.14C53.4409 16.0467 53.4609 15.7733 53.4609 15.32V8.54C53.4609 8.08667 53.4409 7.82 53.4009 7.74C53.3609 7.64667 53.2343 7.58667 53.0209 7.56L51.9209 7.42V6.86H55.6409V8.62C56.0143 7.94 56.4943 7.44667 57.0809 7.14C57.6676 6.82 58.2609 6.66 58.8609 6.66C59.5809 6.66 60.1876 6.84667 60.6809 7.22C61.1876 7.58 61.5476 8.1 61.7609 8.78C62.1209 8.03333 62.6076 7.49333 63.2209 7.16C63.8343 6.82667 64.4476 6.66 65.0609 6.66C66.0076 6.66 66.7609 6.97333 67.3209 7.6C67.8809 8.22667 68.1609 9.11333 68.1609 10.26V15.32C68.1609 15.7733 68.1809 16.0467 68.2209 16.14C68.2609 16.22 68.3876 16.2733 68.6009 16.3L69.7009 16.44V17H64.3209V16.44L65.4209 16.3C65.6343 16.2733 65.7609 16.22 65.8009 16.14C65.8409 16.0467 65.8609 15.7733 65.8609 15.32V10.28C65.8609 9.36 65.7343 8.69333 65.4809 8.28C65.2276 7.85333 64.8476 7.64 64.3409 7.64C64.1276 7.64 63.8743 7.7 63.5809 7.82C63.2876 7.92667 62.9943 8.13333 62.7009 8.44C62.4076 8.74667 62.1543 9.19333 61.9409 9.78C61.9543 9.84667 61.9609 9.92667 61.9609 10.02C61.9609 10.1 61.9609 10.18 61.9609 10.26V15.32C61.9609 15.7733 61.9809 16.0467 62.0209 16.14C62.0609 16.22 62.1876 16.2733 62.4009 16.3L63.5009 16.44ZM70.378 7.42V6.86H74.218V15.32C74.218 15.7733 74.238 16.0467 74.278 16.14C74.318 16.22 74.4446 16.2733 74.658 16.3L75.758 16.44V17H70.378V16.44L71.478 16.3C71.6913 16.2733 71.818 16.22 71.858 16.14C71.898 16.0467 71.918 15.7733 71.918 15.32V8.54C71.918 8.08667 71.898 7.82 71.858 7.74C71.818 7.64667 71.6913 7.58667 71.478 7.56L70.378 7.42ZM72.918 5.42L72.438 5C72.7046 4.57333 72.9446 4.15333 73.158 3.74C73.3713 3.31333 73.5446 2.8 73.678 2.2H76.198C75.7446 2.81333 75.2713 3.36667 74.778 3.86C74.2846 4.35333 73.6646 4.87333 72.918 5.42ZM88.3103 16.44V17H82.9303V16.44L84.0303 16.3C84.2436 16.2733 84.3703 16.22 84.4103 16.14C84.4503 16.0467 84.4703 15.7733 84.4703 15.32V10.28C84.4703 9.36 84.3303 8.69333 84.0503 8.28C83.7836 7.85333 83.3836 7.64 82.8503 7.64C82.6236 7.64 82.357 7.7 82.0503 7.82C81.757 7.92667 81.457 8.12667 81.1503 8.42C80.857 8.71333 80.597 9.14667 80.3703 9.72V15.32C80.3703 15.7733 80.3903 16.0467 80.4303 16.14C80.4703 16.22 80.597 16.2733 80.8103 16.3L81.9103 16.44V17H76.5303V16.44L77.6303 16.3C77.8436 16.2733 77.9703 16.22 78.0103 16.14C78.0503 16.0467 78.0703 15.7733 78.0703 15.32V8.54C78.0703 8.08667 78.0503 7.82 78.0103 7.74C77.9703 7.64667 77.8436 7.58667 77.6303 7.56L76.5303 7.42V6.86H80.2503V8.62C80.637 7.94 81.1303 7.44667 81.7303 7.14C82.3436 6.82 82.957 6.66 83.5703 6.66C84.557 6.66 85.337 6.97333 85.9103 7.6C86.4836 8.22667 86.7703 9.11333 86.7703 10.26V15.32C86.7703 15.7733 86.7903 16.0467 86.8303 16.14C86.8703 16.22 86.997 16.2733 87.2103 16.3L88.3103 16.44Z" fill="#F1F0CA"/>
<mask id="path-2-outside-1_9_31" maskUnits="userSpaceOnUse" x="22" y="19" width="44" height="18" fill="black">
<rect fill="white" x="22" y="19" width="44" height="18"/>
<path d="M23.5612 21.96V21.4H29.0412V21.96L27.9412 22.1C27.7278 22.1267 27.6012 22.1867 27.5612 22.28C27.5212 22.36 27.5012 22.6267 27.5012 23.08V33.32C27.5012 33.7733 27.5212 34.0467 27.5612 34.14C27.6012 34.22 27.7278 34.2733 27.9412 34.3L29.0412 34.44V35H23.5612V34.44L24.6612 34.3C24.8745 34.2733 25.0012 34.22 25.0412 34.14C25.0812 34.0467 25.1012 33.7733 25.1012 33.32V23.08C25.1012 22.6267 25.0812 22.36 25.0412 22.28C25.0012 22.1867 24.8745 22.1267 24.6612 22.1L23.5612 21.96ZM42.1482 34.44V35H36.7682V34.44L37.8682 34.3C38.0815 34.2733 38.2082 34.22 38.2482 34.14C38.2882 34.0467 38.3082 33.7733 38.3082 33.32V28.28C38.3082 27.36 38.1682 26.6933 37.8882 26.28C37.6215 25.8533 37.2215 25.64 36.6882 25.64C36.4615 25.64 36.1949 25.7 35.8882 25.82C35.5949 25.9267 35.2949 26.1267 34.9882 26.42C34.6949 26.7133 34.4349 27.1467 34.2082 27.72V33.32C34.2082 33.7733 34.2282 34.0467 34.2682 34.14C34.3082 34.22 34.4349 34.2733 34.6482 34.3L35.7482 34.44V35H30.3682V34.44L31.4682 34.3C31.6815 34.2733 31.8082 34.22 31.8482 34.14C31.8882 34.0467 31.9082 33.7733 31.9082 33.32V26.54C31.9082 26.0867 31.8882 25.82 31.8482 25.74C31.8082 25.6467 31.6815 25.5867 31.4682 25.56L30.3682 25.42V24.86H34.0882V26.62C34.4749 25.94 34.9682 25.4467 35.5682 25.14C36.1815 24.82 36.7949 24.66 37.4082 24.66C38.3949 24.66 39.1749 24.9733 39.7482 25.6C40.3215 26.2267 40.6082 27.1133 40.6082 28.26V33.32C40.6082 33.7733 40.6282 34.0467 40.6682 34.14C40.7082 34.22 40.8349 34.2733 41.0482 34.3L42.1482 34.44ZM53.7491 34.44V35H50.0291V33.34C49.6558 33.9533 49.2358 34.42 48.7691 34.74C48.3158 35.0467 47.7758 35.2 47.1491 35.2C46.0291 35.2 45.1358 34.76 44.4691 33.88C43.8158 32.9867 43.4891 31.74 43.4891 30.14V29.74C43.4891 28.1933 43.8691 26.96 44.6291 26.04C45.4025 25.12 46.4558 24.66 47.7891 24.66C48.5891 24.66 49.2958 24.86 49.9091 25.26V21.88C49.9091 21.4267 49.8891 21.16 49.8491 21.08C49.8091 20.9867 49.6825 20.9267 49.4691 20.9L48.3691 20.76V20.2H52.2091V33.32C52.2091 33.7733 52.2291 34.0467 52.2691 34.14C52.3091 34.22 52.4358 34.2733 52.6491 34.3L53.7491 34.44ZM45.9491 30.74C45.9491 31.98 46.1025 32.8867 46.4091 33.46C46.7158 34.0333 47.1358 34.32 47.6691 34.32C48.0025 34.32 48.3491 34.1867 48.7091 33.92C49.0825 33.64 49.4825 33.08 49.9091 32.24V26.2C49.4025 25.6933 48.7825 25.44 48.0491 25.44C47.3158 25.44 46.7825 25.7733 46.4491 26.44C46.1158 27.0933 45.9491 27.9933 45.9491 29.14V30.74ZM64.2684 29.72V30.12C64.2684 31.6533 63.8684 32.8867 63.0684 33.82C62.2817 34.74 61.155 35.2 59.6884 35.2C58.2217 35.2 57.0884 34.74 56.2884 33.82C55.5017 32.8867 55.1084 31.6533 55.1084 30.12V29.72C55.1084 28.1867 55.5017 26.96 56.2884 26.04C57.0884 25.12 58.2217 24.66 59.6884 24.66C61.155 24.66 62.2817 25.12 63.0684 26.04C63.8684 26.96 64.2684 28.1867 64.2684 29.72ZM61.8084 29.32C61.8084 27.8933 61.6284 26.88 61.2684 26.28C60.9084 25.6667 60.3817 25.36 59.6884 25.36C59.0084 25.36 58.4817 25.6667 58.1084 26.28C57.7484 26.88 57.5684 27.8933 57.5684 29.32V30.52C57.5684 31.9333 57.7484 32.9533 58.1084 33.58C58.4817 34.1933 59.0084 34.5 59.6884 34.5C60.3817 34.5 60.9084 34.1933 61.2684 33.58C61.6284 32.9533 61.8084 31.9333 61.8084 30.52V29.32Z"/>
</mask>
<path d="M23.5612 21.96V21.4H29.0412V21.96L27.9412 22.1C27.7278 22.1267 27.6012 22.1867 27.5612 22.28C27.5212 22.36 27.5012 22.6267 27.5012 23.08V33.32C27.5012 33.7733 27.5212 34.0467 27.5612 34.14C27.6012 34.22 27.7278 34.2733 27.9412 34.3L29.0412 34.44V35H23.5612V34.44L24.6612 34.3C24.8745 34.2733 25.0012 34.22 25.0412 34.14C25.0812 34.0467 25.1012 33.7733 25.1012 33.32V23.08C25.1012 22.6267 25.0812 22.36 25.0412 22.28C25.0012 22.1867 24.8745 22.1267 24.6612 22.1L23.5612 21.96ZM42.1482 34.44V35H36.7682V34.44L37.8682 34.3C38.0815 34.2733 38.2082 34.22 38.2482 34.14C38.2882 34.0467 38.3082 33.7733 38.3082 33.32V28.28C38.3082 27.36 38.1682 26.6933 37.8882 26.28C37.6215 25.8533 37.2215 25.64 36.6882 25.64C36.4615 25.64 36.1949 25.7 35.8882 25.82C35.5949 25.9267 35.2949 26.1267 34.9882 26.42C34.6949 26.7133 34.4349 27.1467 34.2082 27.72V33.32C34.2082 33.7733 34.2282 34.0467 34.2682 34.14C34.3082 34.22 34.4349 34.2733 34.6482 34.3L35.7482 34.44V35H30.3682V34.44L31.4682 34.3C31.6815 34.2733 31.8082 34.22 31.8482 34.14C31.8882 34.0467 31.9082 33.7733 31.9082 33.32V26.54C31.9082 26.0867 31.8882 25.82 31.8482 25.74C31.8082 25.6467 31.6815 25.5867 31.4682 25.56L30.3682 25.42V24.86H34.0882V26.62C34.4749 25.94 34.9682 25.4467 35.5682 25.14C36.1815 24.82 36.7949 24.66 37.4082 24.66C38.3949 24.66 39.1749 24.9733 39.7482 25.6C40.3215 26.2267 40.6082 27.1133 40.6082 28.26V33.32C40.6082 33.7733 40.6282 34.0467 40.6682 34.14C40.7082 34.22 40.8349 34.2733 41.0482 34.3L42.1482 34.44ZM53.7491 34.44V35H50.0291V33.34C49.6558 33.9533 49.2358 34.42 48.7691 34.74C48.3158 35.0467 47.7758 35.2 47.1491 35.2C46.0291 35.2 45.1358 34.76 44.4691 33.88C43.8158 32.9867 43.4891 31.74 43.4891 30.14V29.74C43.4891 28.1933 43.8691 26.96 44.6291 26.04C45.4025 25.12 46.4558 24.66 47.7891 24.66C48.5891 24.66 49.2958 24.86 49.9091 25.26V21.88C49.9091 21.4267 49.8891 21.16 49.8491 21.08C49.8091 20.9867 49.6825 20.9267 49.4691 20.9L48.3691 20.76V20.2H52.2091V33.32C52.2091 33.7733 52.2291 34.0467 52.2691 34.14C52.3091 34.22 52.4358 34.2733 52.6491 34.3L53.7491 34.44ZM45.9491 30.74C45.9491 31.98 46.1025 32.8867 46.4091 33.46C46.7158 34.0333 47.1358 34.32 47.6691 34.32C48.0025 34.32 48.3491 34.1867 48.7091 33.92C49.0825 33.64 49.4825 33.08 49.9091 32.24V26.2C49.4025 25.6933 48.7825 25.44 48.0491 25.44C47.3158 25.44 46.7825 25.7733 46.4491 26.44C46.1158 27.0933 45.9491 27.9933 45.9491 29.14V30.74ZM64.2684 29.72V30.12C64.2684 31.6533 63.8684 32.8867 63.0684 33.82C62.2817 34.74 61.155 35.2 59.6884 35.2C58.2217 35.2 57.0884 34.74 56.2884 33.82C55.5017 32.8867 55.1084 31.6533 55.1084 30.12V29.72C55.1084 28.1867 55.5017 26.96 56.2884 26.04C57.0884 25.12 58.2217 24.66 59.6884 24.66C61.155 24.66 62.2817 25.12 63.0684 26.04C63.8684 26.96 64.2684 28.1867 64.2684 29.72ZM61.8084 29.32C61.8084 27.8933 61.6284 26.88 61.2684 26.28C60.9084 25.6667 60.3817 25.36 59.6884 25.36C59.0084 25.36 58.4817 25.6667 58.1084 26.28C57.7484 26.88 57.5684 27.8933 57.5684 29.32V30.52C57.5684 31.9333 57.7484 32.9533 58.1084 33.58C58.4817 34.1933 59.0084 34.5 59.6884 34.5C60.3817 34.5 60.9084 34.1933 61.2684 33.58C61.6284 32.9533 61.8084 31.9333 61.8084 30.52V29.32Z" fill="#F95738"/>
<path d="M23.5612 21.96H22.5612V22.8408L23.4349 22.952L23.5612 21.96ZM23.5612 21.4V20.4H22.5612V21.4H23.5612ZM29.0412 21.4H30.0412V20.4H29.0412V21.4ZM29.0412 21.96L29.1674 22.952L30.0412 22.8408V21.96H29.0412ZM27.9412 22.1L28.0652 23.0923L28.0674 23.092L27.9412 22.1ZM27.5612 22.28L28.4556 22.7272L28.4687 22.7009L28.4803 22.6739L27.5612 22.28ZM27.5612 34.14L26.642 34.5339L26.6536 34.5609L26.6667 34.5872L27.5612 34.14ZM27.9412 34.3L28.0674 33.308L28.0652 33.3077L27.9412 34.3ZM29.0412 34.44H30.0412V33.5592L29.1674 33.448L29.0412 34.44ZM29.0412 35V36H30.0412V35H29.0412ZM23.5612 35H22.5612V36H23.5612V35ZM23.5612 34.44L23.4349 33.448L22.5612 33.5592V34.44H23.5612ZM24.6612 34.3L24.5371 33.3077L24.5349 33.308L24.6612 34.3ZM25.0412 34.14L25.9356 34.5872L25.9487 34.5609L25.9603 34.5339L25.0412 34.14ZM25.0412 22.28L24.122 22.6739L24.1336 22.7009L24.1467 22.7272L25.0412 22.28ZM24.6612 22.1L24.5349 23.092L24.5371 23.0923L24.6612 22.1ZM23.5612 21.96H24.5612V21.4H23.5612H22.5612V21.96H23.5612ZM23.5612 21.4V22.4H29.0412V21.4V20.4H23.5612V21.4ZM29.0412 21.4H28.0412V21.96H29.0412H30.0412V21.4H29.0412ZM29.0412 21.96L28.9149 20.968L27.8149 21.108L27.9412 22.1L28.0674 23.092L29.1674 22.952L29.0412 21.96ZM27.9412 22.1L27.8171 21.1077C27.6551 21.128 27.4543 21.1683 27.2581 21.2613C27.0583 21.3559 26.7893 21.5425 26.642 21.8861L27.5612 22.28L28.4803 22.6739C28.3731 22.9241 28.1873 23.0341 28.1143 23.0687C28.0447 23.1017 28.0139 23.0987 28.0652 23.0923L27.9412 22.1ZM27.5612 22.28L26.6667 21.8328C26.5889 21.9884 26.5609 22.1389 26.5496 22.2045C26.5345 22.2913 26.5253 22.3811 26.519 22.4652C26.5063 22.6346 26.5012 22.8429 26.5012 23.08H27.5012H28.5012C28.5012 22.8637 28.5061 22.712 28.5134 22.6148C28.5171 22.5656 28.5203 22.5454 28.5203 22.5455C28.5202 22.5461 28.5177 22.5609 28.511 22.5851C28.5053 22.6055 28.4896 22.6593 28.4556 22.7272L27.5612 22.28ZM27.5012 23.08H26.5012V33.32H27.5012H28.5012V23.08H27.5012ZM27.5012 33.32H26.5012C26.5012 33.5575 26.5063 33.7665 26.5188 33.938C26.5276 34.0581 26.5469 34.3119 26.642 34.5339L27.5612 34.14L28.4803 33.7461C28.5024 33.7975 28.5128 33.8364 28.5166 33.8513C28.5209 33.8684 28.5222 33.8774 28.5218 33.8748C28.5208 33.8685 28.5173 33.8432 28.5135 33.792C28.5061 33.6901 28.5012 33.5358 28.5012 33.32H27.5012ZM27.5612 34.14L26.6667 34.5872C26.8379 34.9294 27.1278 35.0899 27.2981 35.1616C27.4793 35.2379 27.6646 35.2732 27.8171 35.2923L27.9412 34.3L28.0652 33.3077C28.0044 33.3001 28.0197 33.2954 28.0742 33.3184C28.1179 33.3367 28.3245 33.4306 28.4556 33.6928L27.5612 34.14ZM27.9412 34.3L27.8149 35.292L28.9149 35.432L29.0412 34.44L29.1674 33.448L28.0674 33.308L27.9412 34.3ZM29.0412 34.44H28.0412V35H29.0412H30.0412V34.44H29.0412ZM29.0412 35V34H23.5612V35V36H29.0412V35ZM23.5612 35H24.5612V34.44H23.5612H22.5612V35H23.5612ZM23.5612 34.44L23.6874 35.432L24.7874 35.292L24.6612 34.3L24.5349 33.308L23.4349 33.448L23.5612 34.44ZM24.6612 34.3L24.7852 35.2923C24.9377 35.2732 25.123 35.2379 25.3042 35.1616C25.4746 35.0899 25.7645 34.9294 25.9356 34.5872L25.0412 34.14L24.1467 33.6928C24.2779 33.4306 24.4845 33.3367 24.5281 33.3184C24.5826 33.2954 24.598 33.3001 24.5371 33.3077L24.6612 34.3ZM25.0412 34.14L25.9603 34.5339C26.0555 34.3119 26.0747 34.0581 26.0835 33.938C26.0961 33.7665 26.1012 33.5575 26.1012 33.32H25.1012H24.1012C24.1012 33.5358 24.0963 33.6901 24.0888 33.792C24.0851 33.8432 24.0816 33.8685 24.0805 33.8748C24.0801 33.8774 24.0814 33.8684 24.0858 33.8513C24.0895 33.8364 24.1 33.7975 24.122 33.7461L25.0412 34.14ZM25.1012 33.32H26.1012V23.08H25.1012H24.1012V33.32H25.1012ZM25.1012 23.08H26.1012C26.1012 22.8429 26.0961 22.6346 26.0834 22.4652C26.0771 22.3811 26.0678 22.2913 26.0528 22.2045C26.0414 22.1389 26.0134 21.9884 25.9356 21.8328L25.0412 22.28L24.1467 22.7272C24.1128 22.6593 24.097 22.6055 24.0914 22.5851C24.0847 22.5609 24.0822 22.5461 24.0821 22.5455C24.082 22.5454 24.0853 22.5656 24.089 22.6148C24.0963 22.712 24.1012 22.8637 24.1012 23.08H25.1012ZM25.0412 22.28L25.9603 21.8861C25.8131 21.5425 25.544 21.3559 25.3443 21.2613C25.148 21.1683 24.9473 21.128 24.7852 21.1077L24.6612 22.1L24.5371 23.0923C24.5884 23.0987 24.5576 23.1017 24.4881 23.0687C24.415 23.0341 24.2293 22.9241 24.122 22.6739L25.0412 22.28ZM24.6612 22.1L24.7874 21.108L23.6874 20.968L23.5612 21.96L23.4349 22.952L24.5349 23.092L24.6612 22.1ZM42.1482 34.44H43.1482V33.5592L42.2745 33.448L42.1482 34.44ZM42.1482 35V36H43.1482V35H42.1482ZM36.7682 35H35.7682V36H36.7682V35ZM36.7682 34.44L36.6419 33.448L35.7682 33.5592V34.44H36.7682ZM37.8682 34.3L37.7442 33.3077L37.7419 33.308L37.8682 34.3ZM38.2482 34.14L39.1426 34.5872L39.1558 34.5609L39.1673 34.5339L38.2482 34.14ZM37.8882 26.28L37.0402 26.81L37.05 26.8256L37.0603 26.8408L37.8882 26.28ZM35.8882 25.82L36.2299 26.7598L36.2413 26.7557L36.2526 26.7512L35.8882 25.82ZM34.9882 26.42L34.297 25.6974L34.289 25.705L34.2811 25.7129L34.9882 26.42ZM34.2082 27.72L33.2782 27.3523L33.2082 27.5295V27.72H34.2082ZM34.2682 34.14L33.3491 34.5339L33.3606 34.5609L33.3738 34.5872L34.2682 34.14ZM34.6482 34.3L34.7745 33.308L34.7722 33.3077L34.6482 34.3ZM35.7482 34.44H36.7482V33.5592L35.8745 33.448L35.7482 34.44ZM35.7482 35V36H36.7482V35H35.7482ZM30.3682 35H29.3682V36H30.3682V35ZM30.3682 34.44L30.2419 33.448L29.3682 33.5592V34.44H30.3682ZM31.4682 34.3L31.3442 33.3077L31.3419 33.308L31.4682 34.3ZM31.8482 34.14L32.7426 34.5872L32.7558 34.5609L32.7673 34.5339L31.8482 34.14ZM31.8482 25.74L30.9291 26.1339L30.9406 26.1609L30.9538 26.1872L31.8482 25.74ZM31.4682 25.56L31.3419 26.552L31.3442 26.5523L31.4682 25.56ZM30.3682 25.42H29.3682V26.3008L30.2419 26.412L30.3682 25.42ZM30.3682 24.86V23.86H29.3682V24.86H30.3682ZM34.0882 24.86H35.0882V23.86H34.0882V24.86ZM34.0882 26.62H33.0882V30.4017L34.9575 27.1143L34.0882 26.62ZM35.5682 25.14L36.0233 26.0305L36.0308 26.0266L35.5682 25.14ZM39.7482 25.6L39.0104 26.275L39.0104 26.275L39.7482 25.6ZM40.6682 34.14L39.7491 34.5339L39.7606 34.5609L39.7738 34.5872L40.6682 34.14ZM41.0482 34.3L41.1745 33.308L41.1722 33.3077L41.0482 34.3ZM42.1482 34.44H41.1482V35H42.1482H43.1482V34.44H42.1482ZM42.1482 35V34H36.7682V35V36H42.1482V35ZM36.7682 35H37.7682V34.44H36.7682H35.7682V35H36.7682ZM36.7682 34.44L36.8945 35.432L37.9945 35.292L37.8682 34.3L37.7419 33.308L36.6419 33.448L36.7682 34.44ZM37.8682 34.3L37.9922 35.2923C38.1447 35.2732 38.3301 35.2379 38.5113 35.1616C38.6816 35.0899 38.9715 34.9294 39.1426 34.5872L38.2482 34.14L37.3538 33.6928C37.4849 33.4306 37.6915 33.3367 37.7351 33.3184C37.7897 33.2954 37.805 33.3001 37.7442 33.3077L37.8682 34.3ZM38.2482 34.14L39.1673 34.5339C39.2625 34.3119 39.2817 34.0581 39.2905 33.938C39.3031 33.7665 39.3082 33.5575 39.3082 33.32H38.3082H37.3082C37.3082 33.5358 37.3033 33.6901 37.2959 33.792C37.2921 33.8432 37.2886 33.8685 37.2876 33.8748C37.2871 33.8774 37.2885 33.8684 37.2928 33.8513C37.2966 33.8364 37.307 33.7975 37.3291 33.7461L38.2482 34.14ZM38.3082 33.32H39.3082V28.28H38.3082H37.3082V33.32H38.3082ZM38.3082 28.28H39.3082C39.3082 27.3051 39.1686 26.3872 38.7161 25.7192L37.8882 26.28L37.0603 26.8408C37.1678 26.9995 37.3082 27.4149 37.3082 28.28H38.3082ZM37.8882 26.28L38.7362 25.75C38.2739 25.0104 37.5414 24.64 36.6882 24.64V25.64V26.64C36.9017 26.64 36.9691 26.6963 37.0402 26.81L37.8882 26.28ZM36.6882 25.64V24.64C36.294 24.64 35.8985 24.7421 35.5238 24.8888L35.8882 25.82L36.2526 26.7512C36.4912 26.6579 36.6291 26.64 36.6882 26.64V25.64ZM35.8882 25.82L35.5465 24.8802C35.085 25.048 34.6699 25.3407 34.297 25.6974L34.9882 26.42L35.6794 27.1426C35.9198 26.9127 36.1048 26.8053 36.2299 26.7598L35.8882 25.82ZM34.9882 26.42L34.2811 25.7129C33.8558 26.1381 33.5329 26.7081 33.2782 27.3523L34.2082 27.72L35.1382 28.0877C35.3368 27.5852 35.5339 27.2885 35.6953 27.1271L34.9882 26.42ZM34.2082 27.72H33.2082V33.32H34.2082H35.2082V27.72H34.2082ZM34.2082 33.32H33.2082C33.2082 33.5575 33.2133 33.7665 33.2259 33.938C33.2347 34.0581 33.2539 34.3119 33.3491 34.5339L34.2682 34.14L35.1873 33.7461C35.2094 33.7975 35.2198 33.8364 35.2236 33.8513C35.2279 33.8684 35.2293 33.8774 35.2288 33.8748C35.2278 33.8685 35.2243 33.8432 35.2205 33.792C35.2131 33.6901 35.2082 33.5358 35.2082 33.32H34.2082ZM34.2682 34.14L33.3738 34.5872C33.5449 34.9294 33.8348 35.0899 34.0051 35.1616C34.1863 35.2379 34.3717 35.2732 34.5242 35.2923L34.6482 34.3L34.7722 33.3077C34.7114 33.3001 34.7267 33.2954 34.7813 33.3184C34.8249 33.3367 35.0315 33.4306 35.1626 33.6928L34.2682 34.14ZM34.6482 34.3L34.5219 35.292L35.6219 35.432L35.7482 34.44L35.8745 33.448L34.7745 33.308L34.6482 34.3ZM35.7482 34.44H34.7482V35H35.7482H36.7482V34.44H35.7482ZM35.7482 35V34H30.3682V35V36H35.7482V35ZM30.3682 35H31.3682V34.44H30.3682H29.3682V35H30.3682ZM30.3682 34.44L30.4945 35.432L31.5945 35.292L31.4682 34.3L31.3419 33.308L30.2419 33.448L30.3682 34.44ZM31.4682 34.3L31.5922 35.2923C31.7447 35.2732 31.9301 35.2379 32.1113 35.1616C32.2816 35.0899 32.5715 34.9294 32.7426 34.5872L31.8482 34.14L30.9538 33.6928C31.0849 33.4306 31.2915 33.3367 31.3351 33.3184C31.3897 33.2954 31.405 33.3001 31.3442 33.3077L31.4682 34.3ZM31.8482 34.14L32.7673 34.5339C32.8625 34.3119 32.8817 34.0581 32.8905 33.938C32.9031 33.7665 32.9082 33.5575 32.9082 33.32H31.9082H30.9082C30.9082 33.5358 30.9033 33.6901 30.8959 33.792C30.8921 33.8432 30.8886 33.8685 30.8876 33.8748C30.8871 33.8774 30.8885 33.8684 30.8928 33.8513C30.8966 33.8364 30.907 33.7975 30.9291 33.7461L31.8482 34.14ZM31.9082 33.32H32.9082V26.54H31.9082H30.9082V33.32H31.9082ZM31.9082 26.54H32.9082C32.9082 26.3029 32.9031 26.0946 32.8904 25.9252C32.8841 25.8411 32.8748 25.7513 32.8598 25.6645C32.8485 25.5989 32.8204 25.4484 32.7426 25.2928L31.8482 25.74L30.9538 26.1872C30.9198 26.1193 30.904 26.0655 30.8984 26.0451C30.8917 26.0209 30.8892 26.0061 30.8891 26.0055C30.8891 26.0054 30.8923 26.0256 30.896 26.0748C30.9033 26.172 30.9082 26.3237 30.9082 26.54H31.9082ZM31.8482 25.74L32.7673 25.3461C32.6201 25.0025 32.351 24.8159 32.1513 24.7213C31.9551 24.6283 31.7543 24.588 31.5922 24.5677L31.4682 25.56L31.3442 26.5523C31.3954 26.5587 31.3647 26.5617 31.2951 26.5287C31.222 26.4941 31.0363 26.3841 30.9291 26.1339L31.8482 25.74ZM31.4682 25.56L31.5945 24.568L30.4945 24.428L30.3682 25.42L30.2419 26.412L31.3419 26.552L31.4682 25.56ZM30.3682 25.42H31.3682V24.86H30.3682H29.3682V25.42H30.3682ZM30.3682 24.86V25.86H34.0882V24.86V23.86H30.3682V24.86ZM34.0882 24.86H33.0882V26.62H34.0882H35.0882V24.86H34.0882ZM34.0882 26.62L34.9575 27.1143C35.2636 26.576 35.6236 26.2347 36.0233 26.0304L35.5682 25.14L35.1131 24.2496C34.3128 24.6586 33.6861 25.304 33.2189 26.1257L34.0882 26.62ZM35.5682 25.14L36.0308 26.0266C36.5198 25.7715 36.9756 25.66 37.4082 25.66V24.66V23.66C36.6142 23.66 35.8433 23.8685 35.1056 24.2534L35.5682 25.14ZM37.4082 24.66V25.66C38.164 25.66 38.6577 25.8895 39.0104 26.275L39.7482 25.6L40.486 24.925C39.6921 24.0572 38.6258 23.66 37.4082 23.66V24.66ZM39.7482 25.6L39.0104 26.275C39.3635 26.6609 39.6082 27.2744 39.6082 28.26H40.6082H41.6082C41.6082 26.9522 41.2796 25.7924 40.486 24.925L39.7482 25.6ZM40.6082 28.26H39.6082V33.32H40.6082H41.6082V28.26H40.6082ZM40.6082 33.32H39.6082C39.6082 33.5575 39.6133 33.7665 39.6259 33.938C39.6347 34.0581 39.6539 34.3119 39.7491 34.5339L40.6682 34.14L41.5873 33.7461C41.6094 33.7975 41.6198 33.8364 41.6236 33.8513C41.6279 33.8684 41.6293 33.8774 41.6288 33.8748C41.6278 33.8685 41.6243 33.8432 41.6205 33.792C41.6131 33.6901 41.6082 33.5358 41.6082 33.32H40.6082ZM40.6682 34.14L39.7738 34.5872C39.9449 34.9294 40.2348 35.0899 40.4051 35.1616C40.5863 35.2379 40.7717 35.2732 40.9242 35.2923L41.0482 34.3L41.1722 33.3077C41.1114 33.3001 41.1267 33.2954 41.1813 33.3184C41.2249 33.3367 41.4315 33.4306 41.5626 33.6928L40.6682 34.14ZM41.0482 34.3L40.9219 35.292L42.0219 35.432L42.1482 34.44L42.2745 33.448L41.1745 33.308L41.0482 34.3ZM53.7491 34.44H54.7491V33.5592L53.8754 33.448L53.7491 34.44ZM53.7491 35V36H54.7491V35H53.7491ZM50.0291 35H49.0291V36H50.0291V35ZM50.0291 33.34H51.0291V29.7739L49.1749 32.8201L50.0291 33.34ZM48.7691 34.74L49.3295 35.5683L49.3347 35.5647L48.7691 34.74ZM44.4691 33.88L43.662 34.4703L43.667 34.4771L43.672 34.4839L44.4691 33.88ZM44.6291 26.04L43.8636 25.3965L43.8582 25.4031L44.6291 26.04ZM49.9091 25.26L49.3629 26.0976L50.9091 27.106V25.26H49.9091ZM49.8491 21.08L48.93 21.4739L48.9416 21.5009L48.9547 21.5272L49.8491 21.08ZM49.4691 20.9L49.3429 21.892L49.3451 21.8923L49.4691 20.9ZM48.3691 20.76H47.3691V21.6408L48.2429 21.752L48.3691 20.76ZM48.3691 20.2V19.2H47.3691V20.2H48.3691ZM52.2091 20.2H53.2091V19.2H52.2091V20.2ZM52.2691 34.14L51.35 34.5339L51.3616 34.5609L51.3747 34.5872L52.2691 34.14ZM52.6491 34.3L52.7754 33.308L52.7732 33.3077L52.6491 34.3ZM46.4091 33.46L47.2909 32.9883L47.2909 32.9883L46.4091 33.46ZM48.7091 33.92L49.3044 34.7236L49.3091 34.72L48.7091 33.92ZM49.9091 32.24L50.8007 32.6929L50.9091 32.4794V32.24H49.9091ZM49.9091 26.2H50.9091V25.7858L50.6162 25.4929L49.9091 26.2ZM46.4491 26.44L47.3399 26.8945L47.3436 26.8872L46.4491 26.44ZM53.7491 34.44H52.7491V35H53.7491H54.7491V34.44H53.7491ZM53.7491 35V34H50.0291V35V36H53.7491V35ZM50.0291 35H51.0291V33.34H50.0291H49.0291V35H50.0291ZM50.0291 33.34L49.1749 32.8201C48.8561 33.3439 48.5267 33.6938 48.2036 33.9153L48.7691 34.74L49.3347 35.5647C49.945 35.1462 50.4555 34.5628 50.8833 33.8599L50.0291 33.34ZM48.7691 34.74L48.2088 33.9117C47.944 34.0908 47.6059 34.2 47.1491 34.2V35.2V36.2C47.9457 36.2 48.6876 36.0025 49.3295 35.5683L48.7691 34.74ZM47.1491 35.2V34.2C46.3369 34.2 45.7407 33.9024 45.2662 33.2761L44.4691 33.88L43.672 34.4839C44.531 35.6176 45.7214 36.2 47.1491 36.2V35.2ZM44.4691 33.88L45.2763 33.2897C44.793 32.6288 44.4891 31.6187 44.4891 30.14H43.4891H42.4891C42.4891 31.8613 42.8386 33.3445 43.662 34.4703L44.4691 33.88ZM43.4891 30.14H44.4891V29.74H43.4891H42.4891V30.14H43.4891ZM43.4891 29.74H44.4891C44.4891 28.3559 44.8273 27.3703 45.4001 26.6769L44.6291 26.04L43.8582 25.4031C42.911 26.5497 42.4891 28.0307 42.4891 29.74H43.4891ZM44.6291 26.04L45.3946 26.6835C45.9557 26.016 46.7147 25.66 47.7891 25.66V24.66V23.66C46.197 23.66 44.8493 24.224 43.8637 25.3965L44.6291 26.04ZM47.7891 24.66V25.66C48.4138 25.66 48.927 25.8133 49.3629 26.0976L49.9091 25.26L50.4554 24.4224C49.6646 23.9067 48.7644 23.66 47.7891 23.66V24.66ZM49.9091 25.26H50.9091V21.88H49.9091H48.9091V25.26H49.9091ZM49.9091 21.88H50.9091C50.9091 21.6429 50.904 21.4346 50.8913 21.2652C50.885 21.1811 50.8758 21.0913 50.8607 21.0045C50.8494 20.9389 50.8214 20.7884 50.7436 20.6328L49.8491 21.08L48.9547 21.5272C48.9207 21.4593 48.905 21.4055 48.8993 21.3851C48.8926 21.3609 48.8901 21.3461 48.89 21.3455C48.89 21.3454 48.8933 21.3656 48.8969 21.4148C48.9042 21.512 48.9091 21.6637 48.9091 21.88H49.9091ZM49.8491 21.08L50.7683 20.6861C50.621 20.3425 50.352 20.1559 50.1522 20.0613C49.956 19.9683 49.7552 19.928 49.5932 19.9077L49.4691 20.9L49.3451 21.8923C49.3964 21.8987 49.3656 21.9017 49.2961 21.8687C49.223 21.8341 49.0372 21.7241 48.93 21.4739L49.8491 21.08ZM49.4691 20.9L49.5954 19.908L48.4954 19.768L48.3691 20.76L48.2429 21.752L49.3429 21.892L49.4691 20.9ZM48.3691 20.76H49.3691V20.2H48.3691H47.3691V20.76H48.3691ZM48.3691 20.2V21.2H52.2091V20.2V19.2H48.3691V20.2ZM52.2091 20.2H51.2091V33.32H52.2091H53.2091V20.2H52.2091ZM52.2091 33.32H51.2091C51.2091 33.5575 51.2143 33.7665 51.2268 33.938C51.2356 34.0581 51.2548 34.3119 51.35 34.5339L52.2691 34.14L53.1883 33.7461C53.2103 33.7975 53.2208 33.8364 53.2245 33.8513C53.2289 33.8684 53.2302 33.8774 53.2298 33.8748C53.2287 33.8685 53.2252 33.8432 53.2215 33.792C53.214 33.6901 53.2091 33.5358 53.2091 33.32H52.2091ZM52.2691 34.14L51.3747 34.5872C51.5458 34.9294 51.8358 35.0899 52.0061 35.1616C52.1873 35.2379 52.3726 35.2732 52.5251 35.2923L52.6491 34.3L52.7732 33.3077C52.7124 33.3001 52.7277 33.2954 52.7822 33.3184C52.8259 33.3367 53.0325 33.4306 53.1636 33.6928L52.2691 34.14ZM52.6491 34.3L52.5229 35.292L53.6229 35.432L53.7491 34.44L53.8754 33.448L52.7754 33.308L52.6491 34.3ZM45.9491 30.74H44.9491C44.9491 32.0207 45.1004 33.1334 45.5274 33.9317L46.4091 33.46L47.2909 32.9883C47.1045 32.6399 46.9491 31.9393 46.9491 30.74H45.9491ZM46.4091 33.46L45.5274 33.9317C45.9626 34.7453 46.6797 35.32 47.6691 35.32V34.32V33.32C47.592 33.32 47.469 33.3214 47.2909 32.9883L46.4091 33.46ZM47.6691 34.32V35.32C48.2798 35.32 48.8307 35.0744 49.3044 34.7236L48.7091 33.92L48.1139 33.1164C47.8676 33.2989 47.7252 33.32 47.6691 33.32V34.32ZM48.7091 33.92L49.3091 34.72C49.8763 34.2947 50.3614 33.5577 50.8007 32.6929L49.9091 32.24L49.0176 31.7871C48.6035 32.6023 48.2887 32.9853 48.1091 33.12L48.7091 33.92ZM49.9091 32.24H50.9091V26.2H49.9091H48.9091V32.24H49.9091ZM49.9091 26.2L50.6162 25.4929C49.9172 24.7938 49.0407 24.44 48.0491 24.44V25.44V26.44C48.5242 26.44 48.8878 26.5928 49.202 26.9071L49.9091 26.2ZM48.0491 25.44V24.44C47.5267 24.44 47.0196 24.5605 46.5691 24.842C46.1196 25.1229 45.7883 25.5256 45.5547 25.9928L46.4491 26.44L47.3436 26.8872C47.4433 26.6877 47.5453 26.5904 47.6291 26.538C47.712 26.4862 47.8382 26.44 48.0491 26.44V25.44ZM46.4491 26.44L45.5584 25.9855C45.124 26.837 44.9491 27.9156 44.9491 29.14H45.9491H46.9491C46.9491 28.071 47.1076 27.3497 47.3399 26.8945L46.4491 26.44ZM45.9491 29.14H44.9491V30.74H45.9491H46.9491V29.14H45.9491ZM63.0684 33.82L62.3091 33.1692L62.3083 33.1701L63.0684 33.82ZM56.2884 33.82L55.5237 34.4645L55.5287 34.4704L55.5338 34.4762L56.2884 33.82ZM56.2884 26.04L55.5337 25.3838L55.5283 25.3901L56.2884 26.04ZM63.0684 26.04L62.3083 26.6899L62.3138 26.6962L63.0684 26.04ZM61.2684 26.28L60.4059 26.7862L60.4109 26.7945L61.2684 26.28ZM58.1084 26.28L57.2541 25.76L57.2509 25.7655L58.1084 26.28ZM58.1084 33.58L57.2413 34.0781L57.2476 34.0891L57.2542 34.0999L58.1084 33.58ZM61.2684 33.58L62.1308 34.0862L62.1355 34.0781L61.2684 33.58ZM64.2684 29.72H63.2684V30.12H64.2684H65.2684V29.72H64.2684ZM64.2684 30.12H63.2684C63.2684 31.4756 62.9182 32.4586 62.3091 33.1692L63.0684 33.82L63.8276 34.4708C64.8185 33.3147 65.2684 31.831 65.2684 30.12H64.2684ZM63.0684 33.82L62.3083 33.1701C61.7517 33.8211 60.9304 34.2 59.6884 34.2V35.2V36.2C61.3796 36.2 62.8117 35.6589 63.8284 34.4699L63.0684 33.82ZM59.6884 35.2V34.2C58.4468 34.2 57.6146 33.8212 57.043 33.1638L56.2884 33.82L55.5338 34.4762C56.5622 35.6588 57.9965 36.2 59.6884 36.2V35.2ZM56.2884 33.82L57.053 33.1755C56.4541 32.465 56.1084 31.4796 56.1084 30.12H55.1084H54.1084C54.1084 31.827 54.5493 33.3084 55.5237 34.4645L56.2884 33.82ZM55.1084 30.12H56.1084V29.72H55.1084H54.1084V30.12H55.1084ZM55.1084 29.72H56.1084C56.1084 28.3596 56.4543 27.3846 57.0484 26.6899L56.2884 26.04L55.5283 25.3901C54.5491 26.5354 54.1084 28.0137 54.1084 29.72H55.1084ZM56.2884 26.04L57.043 26.6962C57.6146 26.0388 58.4468 25.66 59.6884 25.66V24.66V23.66C57.9965 23.66 56.5622 24.2012 55.5338 25.3838L56.2884 26.04ZM59.6884 24.66V25.66C60.9304 25.66 61.7517 26.0389 62.3083 26.6899L63.0684 26.04L63.8284 25.3901C62.8117 24.2011 61.3796 23.66 59.6884 23.66V24.66ZM63.0684 26.04L62.3138 26.6962C62.9179 27.391 63.2684 28.3637 63.2684 29.72H64.2684H65.2684C65.2684 28.0097 64.8188 26.529 63.823 25.3838L63.0684 26.04ZM61.8084 29.32H62.8084C62.8084 27.8648 62.6348 26.6137 62.1259 25.7655L61.2684 26.28L60.4109 26.7945C60.622 27.1463 60.8084 27.9219 60.8084 29.32H61.8084ZM61.2684 26.28L62.1308 25.7738C61.5969 24.8643 60.7475 24.36 59.6884 24.36V25.36V26.36C60.0159 26.36 60.2198 26.4691 60.4059 26.7862L61.2684 26.28ZM59.6884 25.36V24.36C58.6363 24.36 57.7966 24.8688 57.2542 25.7601L58.1084 26.28L58.9626 26.7999C59.1668 26.4645 59.3804 26.36 59.6884 26.36V25.36ZM58.1084 26.28L57.2509 25.7655C56.742 26.6137 56.5684 27.8648 56.5684 29.32H57.5684H58.5684C58.5684 27.9219 58.7548 27.1463 58.9659 26.7945L58.1084 26.28ZM57.5684 29.32H56.5684V30.52H57.5684H58.5684V29.32H57.5684ZM57.5684 30.52H56.5684C56.5684 31.9704 56.7446 33.2136 57.2413 34.0781L58.1084 33.58L58.9755 33.0819C58.7521 32.693 58.5684 31.8963 58.5684 30.52H57.5684ZM58.1084 33.58L57.2542 34.0999C57.7966 34.9912 58.6363 35.5 59.6884 35.5V34.5V33.5C59.3804 33.5 59.1668 33.3955 58.9626 33.0601L58.1084 33.58ZM59.6884 34.5V35.5C60.7475 35.5 61.5969 34.9957 62.1308 34.0862L61.2684 33.58L60.4059 33.0738C60.2198 33.3909 60.0159 33.5 59.6884 33.5V34.5ZM61.2684 33.58L62.1355 34.0781C62.6321 33.2136 62.8084 31.9704 62.8084 30.52H61.8084H60.8084C60.8084 31.8963 60.6246 32.693 60.4013 33.0819L61.2684 33.58ZM61.8084 30.52H62.8084V29.32H61.8084H60.8084V30.52H61.8084Z" fill="url(#paint0_linear_9_31)" fill-opacity="0.2" mask="url(#path-2-outside-1_9_31)"/>
<defs>
<linearGradient id="paint0_linear_9_31" x1="44" y1="18" x2="44" y2="36" gradientUnits="userSpaceOnUse">
<stop/>
<stop offset="1" stop-color="#666666"/>
</linearGradient>
</defs>
</svg>
