<svg width="180" height="180" viewBox="0 0 180 180" fill="none" xmlns="http://www.w3.org/2000/svg">
<path d="M40 48C40 43.5817 43.5817 40 48 40H132C136.418 40 140 43.5817 140 48V132C140 136.418 136.418 140 132 140H48C43.5817 140 40 136.418 40 132V48Z" fill="#0D3B66"/>
<path d="M80.0333 72.272V70.48H97.6973C101.111 70.48 103.82 70.9493 105.825 71.888C107.831 72.8267 109.26 74.064 110.113 75.6C111.009 77.136 111.457 78.8427 111.457 80.72V82.448C111.457 84.6667 110.753 86.5867 109.345 88.208C107.98 89.7867 105.975 90.9173 103.329 91.6C106.572 92.1547 109.047 93.3067 110.753 95.056C112.503 96.8053 113.377 99.0027 113.377 101.648V103.44C113.377 105.36 112.929 107.131 112.033 108.752C111.137 110.331 109.644 111.611 107.553 112.592C105.505 113.531 102.753 114 99.2973 114H80.0333V112.208L83.5533 111.76C84.2359 111.675 84.6413 111.504 84.7693 111.248C84.8973 110.949 84.9613 110.075 84.9613 108.624V75.856C84.9613 74.4053 84.8973 73.552 84.7693 73.296C84.6413 72.9973 84.2359 72.8053 83.5533 72.72L80.0333 72.272ZM97.6973 72.72H92.6413V90.64H97.6973C99.5319 90.64 100.919 90.0213 101.857 88.784C102.796 87.504 103.265 85.4987 103.265 82.768V80.72C103.265 77.9467 102.796 75.92 101.857 74.64C100.919 73.36 99.5319 72.72 97.6973 72.72ZM99.2973 92.88H92.6413V111.76H99.2973C101.217 111.76 102.668 111.12 103.649 109.84C104.673 108.517 105.185 106.384 105.185 103.44V101.328C105.185 95.696 103.223 92.88 99.2973 92.88Z" fill="#F1F0CA"/>
<mask id="path-3-outside-1_0_1" maskUnits="userSpaceOnUse" x="72" y="69" width="20" height="46" fill="black">
<rect fill="white" x="72" y="69" width="20" height="46"/>
<path d="M73.2208 72.272V70.48H90.7568V72.272L87.2368 72.72C86.5541 72.8053 86.1488 72.9973 86.0208 73.296C85.8928 73.552 85.8288 74.4053 85.8288 75.856V108.624C85.8288 110.075 85.8928 110.949 86.0208 111.248C86.1488 111.504 86.5541 111.675 87.2368 111.76L90.7568 112.208V114H73.2208V112.208L76.7408 111.76C77.4234 111.675 77.8288 111.504 77.9568 111.248C78.0848 110.949 78.1488 110.075 78.1488 108.624V75.856C78.1488 74.4053 78.0848 73.552 77.9568 73.296C77.8288 72.9973 77.4234 72.8053 76.7408 72.72L73.2208 72.272Z"/>
</mask>
<path d="M73.2208 72.272V70.48H90.7568V72.272L87.2368 72.72C86.5541 72.8053 86.1488 72.9973 86.0208 73.296C85.8928 73.552 85.8288 74.4053 85.8288 75.856V108.624C85.8288 110.075 85.8928 110.949 86.0208 111.248C86.1488 111.504 86.5541 111.675 87.2368 111.76L90.7568 112.208V114H73.2208V112.208L76.7408 111.76C77.4234 111.675 77.8288 111.504 77.9568 111.248C78.0848 110.949 78.1488 110.075 78.1488 108.624V75.856C78.1488 74.4053 78.0848 73.552 77.9568 73.296C77.8288 72.9973 77.4234 72.8053 76.7408 72.72L73.2208 72.272Z" fill="#F95738"/>
<path d="M73.2207 72.272H72.2207V73.1528L73.0945 73.264L73.2207 72.272ZM73.2207 70.48V69.48H72.2207V70.48H73.2207ZM90.7568 70.48H91.7568V69.48H90.7568V70.48ZM90.7568 72.272L90.883 73.264L91.7568 73.1528V72.272H90.7568ZM87.2368 72.72L87.3608 73.7123L87.363 73.712L87.2368 72.72ZM86.0208 73.296L86.9152 73.7432L86.9283 73.7169L86.9399 73.6899L86.0208 73.296ZM86.0208 111.248L85.1016 111.642L85.1132 111.669L85.1263 111.695L86.0208 111.248ZM87.2368 111.76L87.363 110.768L87.3608 110.768L87.2368 111.76ZM90.7568 112.208H91.7568V111.327L90.883 111.216L90.7568 112.208ZM90.7568 114V115H91.7568V114H90.7568ZM73.2207 114H72.2207V115H73.2207V114ZM73.2207 112.208L73.0945 111.216L72.2207 111.327V112.208H73.2207ZM76.7407 111.76L76.6167 110.768L76.6145 110.768L76.7407 111.76ZM77.9567 111.248L78.8512 111.695L78.8643 111.669L78.8759 111.642L77.9567 111.248ZM77.9567 73.296L77.0376 73.6899L77.0492 73.7169L77.0623 73.7432L77.9567 73.296ZM76.7407 72.72L76.6145 73.712L76.6167 73.7123L76.7407 72.72ZM73.2207 72.272H74.2207V70.48H73.2207H72.2207V72.272H73.2207ZM73.2207 70.48V71.48H90.7568V70.48V69.48H73.2207V70.48ZM90.7568 70.48H89.7568V72.272H90.7568H91.7568V70.48H90.7568ZM90.7568 72.272L90.6305 71.28L87.1105 71.728L87.2368 72.72L87.363 73.712L90.883 73.264L90.7568 72.272ZM87.2368 72.72L87.1127 71.7277C86.716 71.7773 86.3282 71.8653 85.9927 72.0243C85.6536 72.1849 85.2928 72.4559 85.1016 72.9021L86.0208 73.296L86.9399 73.6899C86.8767 73.8375 86.7826 73.8631 86.8488 73.8317C86.9186 73.7987 87.0748 73.748 87.3608 73.7123L87.2368 72.72ZM86.0208 73.296L85.1263 72.8488C85.0265 73.0484 84.9792 73.2686 84.9514 73.4295C84.9199 73.6116 84.8969 73.8224 84.8796 74.0532C84.8448 74.516 84.8288 75.1203 84.8288 75.856H85.8288H86.8288C86.8288 75.1411 86.8447 74.5934 86.874 74.2028C86.8886 74.0069 86.9056 73.8657 86.9221 73.7705C86.9423 73.6541 86.951 73.6716 86.9152 73.7432L86.0208 73.296ZM85.8288 75.856H84.8288V108.624H85.8288H86.8288V75.856H85.8288ZM85.8288 108.624H84.8288C84.8288 109.36 84.8449 109.969 84.8794 110.441C84.9102 110.862 84.9625 111.317 85.1016 111.642L86.0208 111.248L86.9399 110.854C86.951 110.88 86.9073 110.749 86.8741 110.295C86.8446 109.892 86.8288 109.338 86.8288 108.624H85.8288ZM86.0208 111.248L85.1263 111.695C85.3414 112.125 85.723 112.359 86.0327 112.49C86.3532 112.625 86.7255 112.704 87.1127 112.752L87.2368 111.76L87.3608 110.768C87.0653 110.731 86.8936 110.682 86.8088 110.646C86.7131 110.606 86.8281 110.627 86.9152 110.801L86.0208 111.248ZM87.2368 111.76L87.1105 112.752L90.6305 113.2L90.7568 112.208L90.883 111.216L87.363 110.768L87.2368 111.76ZM90.7568 112.208H89.7568V114H90.7568H91.7568V112.208H90.7568ZM90.7568 114V113H73.2207V114V115H90.7568V114ZM73.2207 114H74.2207V112.208H73.2207H72.2207V114H73.2207ZM73.2207 112.208L73.347 113.2L76.867 112.752L76.7407 111.76L76.6145 110.768L73.0945 111.216L73.2207 112.208ZM76.7407 111.76L76.8648 112.752C77.252 112.704 77.6243 112.625 77.9448 112.49C78.2545 112.359 78.6361 112.125 78.8512 111.695L77.9567 111.248L77.0623 110.801C77.1494 110.627 77.2644 110.606 77.1687 110.646C77.0839 110.682 76.9122 110.731 76.6167 110.768L76.7407 111.76ZM77.9567 111.248L78.8759 111.642C79.015 111.317 79.0673 110.862 79.0981 110.441C79.1326 109.969 79.1488 109.36 79.1488 108.624H78.1488H77.1488C77.1488 109.338 77.1329 109.892 77.1034 110.295C77.0702 110.749 77.0265 110.88 77.0376 110.854L77.9567 111.248ZM78.1488 108.624H79.1488V75.856H78.1488H77.1488V108.624H78.1488ZM78.1488 75.856H79.1488C79.1488 75.1203 79.1327 74.516 79.0979 74.0532C79.0806 73.8224 79.0576 73.6116 79.0261 73.4295C78.9983 73.2686 78.951 73.0484 78.8512 72.8488L77.9567 73.296L77.0623 73.7432C77.0265 73.6716 77.0352 73.6541 77.0554 73.7705C77.0719 73.8657 77.0889 74.0069 77.1035 74.2028C77.1328 74.5934 77.1488 75.1411 77.1488 75.856H78.1488ZM77.9567 73.296L78.8759 72.9021C78.6847 72.4559 78.3239 72.1849 77.9848 72.0243C77.6493 71.8653 77.2615 71.7773 76.8648 71.7277L76.7407 72.72L76.6167 73.7123C76.9027 73.748 77.0589 73.7987 77.1287 73.8317C77.1949 73.8631 77.1008 73.8375 77.0376 73.6899L77.9567 73.296ZM76.7407 72.72L76.867 71.728L73.347 71.28L73.2207 72.272L73.0945 73.264L76.6145 73.712L76.7407 72.72Z" fill="url(#paint0_linear_0_1)" fill-opacity="0.2" mask="url(#path-3-outside-1_0_1)"/>
<defs>
<linearGradient id="paint0_linear_0_1" x1="82" y1="40" x2="82" y2="140" gradientUnits="userSpaceOnUse">
<stop/>
<stop offset="1" stop-color="#666666"/>
</linearGradient>
</defs>
</svg>
